<svg width="23" height="20" viewBox="0 0 23 20" fill="none" xmlns="http://www.w3.org/2000/svg">
<path d="M22.9999 8.21436V8.92864C22.9999 9.52038 22.5801 10.0001 22.0624 10.0001H21.7499L20.7298 18.1602C20.5979 19.2159 19.8068 20 18.8737 20H4.62615C3.69307 20 2.90198 19.2159 2.76999 18.1602L1.74999 10.0001H1.43749C0.919724 10.0001 0.5 9.52038 0.5 8.92864V8.21436C0.5 7.62262 0.919724 7.14294 1.43749 7.14294H4.06799L8.23905 0.588471C8.6451 -0.0495607 9.42682 -0.190676 9.98517 0.273384C10.5435 0.737443 10.6669 1.63088 10.2609 2.26895L7.15922 7.14294H16.3406L13.239 2.26891C12.8329 1.63088 12.9564 0.737399 13.5147 0.273339C14.073 -0.190721 14.8548 -0.0496499 15.2608 0.588426L19.4319 7.14294H22.0624C22.5801 7.14294 22.9999 7.62262 22.9999 8.21436ZM12.6874 16.0715V11.0715C12.6874 10.4797 12.2677 10.0001 11.7499 10.0001C11.2322 10.0001 10.8124 10.4797 10.8124 11.0715V16.0715C10.8124 16.6632 11.2322 17.1429 11.7499 17.1429C12.2677 17.1429 12.6874 16.6632 12.6874 16.0715ZM17.0624 16.0715V11.0715C17.0624 10.4797 16.6427 10.0001 16.1249 10.0001C15.6071 10.0001 15.1874 10.4797 15.1874 11.0715V16.0715C15.1874 16.6632 15.6071 17.1429 16.1249 17.1429C16.6427 17.1429 17.0624 16.6632 17.0624 16.0715ZM8.31245 16.0715V11.0715C8.31245 10.4797 7.89273 10.0001 7.37496 10.0001C6.85719 10.0001 6.43746 10.4797 6.43746 11.0715V16.0715C6.43746 16.6632 6.85719 17.1429 7.37496 17.1429C7.89273 17.1429 8.31245 16.6632 8.31245 16.0715Z" fill="white"/>
</svg>
