<svg width="25" height="19" viewBox="0 0 25 19" fill="none" xmlns="http://www.w3.org/2000/svg">
<path d="M12.3292 1C5.79709 1 0.503066 4.63672 0.503066 9.125C0.503066 10.9844 1.42236 12.6875 2.94682 14.0586C2.2585 15.5977 0.826436 16.9023 0.803338 16.918C0.498446 17.1914 0.415294 17.5898 0.590838 17.9336C0.766381 18.2773 1.16828 18.5 1.61176 18.5C4.45279 18.5 6.69328 17.4961 8.03758 16.6914C9.37263 17.0469 10.8139 17.25 12.3292 17.25C18.8612 17.25 24.1552 13.6133 24.1552 9.125C24.1552 4.63672 18.8612 1 12.3292 1ZM12.3292 15.375C11.0957 15.375 9.87617 15.2148 8.70741 14.9023L7.65877 14.6211L6.75796 15.1602C6.09736 15.5547 5.19193 15.9961 4.10171 16.293C4.43894 15.8203 4.76693 15.2891 5.021 14.7227L5.51067 13.625L4.55904 12.7734C3.7229 12.0195 2.72046 10.7734 2.72046 9.125C2.72046 5.67969 7.03051 2.875 12.3292 2.875C17.6278 2.875 21.9379 5.67969 21.9379 9.125C21.9379 12.5703 17.6278 15.375 12.3292 15.375Z" fill="white" stroke="white"/>
</svg>
