<svg width="62" height="50" viewBox="0 0 62 50" fill="none" xmlns="http://www.w3.org/2000/svg">
<path fill-rule="evenodd" clip-rule="evenodd" d="M33.5735 10.8565C33.6843 10.8051 33.7919 10.751 33.8957 10.6942C35.0938 10.0392 35.6194 8.81272 35.9005 7.90784C36.0503 7.42578 36.1589 6.93708 36.2477 6.5163C36.2673 6.42358 36.2857 6.3355 36.3032 6.2515L36.3033 6.25112C36.3703 5.92999 36.4249 5.66853 36.4866 5.43555C36.6302 4.89319 36.4447 4.3169 36.0118 3.96006C35.8602 3.83511 35.688 3.74509 35.5066 3.69133C35.4239 3.37272 35.3105 3.05368 35.1589 2.74155C34.404 1.18796 32.9103 0.218081 30.8536 0.0540262C26.7795 -0.27094 23.2612 0.876494 20.1412 3.32312C19.8741 3.53252 19.697 3.823 19.6261 4.13889C18.364 5.00284 17.2646 6.00861 16.2435 6.99711C16.0703 7.16484 15.9457 7.36956 15.8748 7.59068C15.5902 7.64279 15.2942 7.69713 14.9842 7.75812C14.3412 7.8846 13.8655 8.43027 13.8278 9.08443C13.79 9.73859 14.2 10.3353 14.8241 10.5348C14.9233 10.5666 15.0239 10.5988 15.1256 10.6315C17.6758 11.4504 21.0017 12.5184 24.2371 11.3209C24.2413 11.3194 24.2454 11.3178 24.2495 11.3163C24.2524 11.3152 24.2553 11.314 24.2582 11.3129C24.2627 11.3112 24.2671 11.3094 24.2715 11.3077L24.2784 11.3049C24.6692 11.1487 25.0449 10.9485 25.3363 10.7931C25.3913 10.7638 25.4432 10.7361 25.4918 10.7105C25.8335 10.5308 26.0792 10.4162 26.3176 10.3493C26.5769 10.2766 26.8373 10.2447 27.1245 10.2799C27.402 10.3138 27.7616 10.4172 28.2162 10.6832C28.2321 10.6944 28.2479 10.7055 28.2638 10.7165L27.878 11.6778C25.9661 12.0361 24.0974 12.6905 22.4114 13.4614C19.8392 14.6374 17.5824 16.135 16.1126 17.4372C15.7647 17.7455 15.596 18.1933 15.6342 18.6359L6.46316 20.4966L6.46025 20.4972C5.314 20.7323 4.2859 21.3591 3.54932 22.2688C2.81319 23.178 2.41306 24.314 2.41477 25.4841V27.1101C1.51607 27.4485 0.95595 28.2986 0.661041 28.9355C0.228915 29.8688 0 31.0572 0 32.2926C0 33.528 0.228915 34.7163 0.661041 35.6496C0.95595 36.2866 1.51607 37.1367 2.41477 37.475V38.8118C2.4113 38.8715 2.41154 38.9317 2.41564 38.9921C2.42608 39.2947 2.53085 39.5767 2.70394 39.8063L3.06298 40.5388C3.40172 41.2289 3.89223 41.8334 4.49817 42.3061C5.10415 42.7787 5.8096 43.1071 6.56138 43.2655L16.7235 45.4098C16.8566 45.5719 17.0214 45.7118 17.2146 45.8195C19.7316 47.2215 25.4151 49.9996 30.9925 50H30.9941C36.2863 50 41.6896 47.6664 44.1373 46.3763C44.5072 46.1813 44.778 45.8688 44.9257 45.5067L55.5013 43.2665L55.5013 43.2665C56.2523 43.1075 56.9569 42.7789 57.5621 42.3063C58.1673 41.8337 58.6573 41.2296 58.9957 40.5401C59.0406 40.4486 59.0757 40.3526 59.1002 40.2538L59.3143 39.3924C59.3605 39.2513 59.3853 39.101 59.3853 38.946V36.8687C60.2731 36.5256 60.8274 35.6828 61.1202 35.0502C61.5522 34.117 61.7811 32.9288 61.7811 31.6935C61.7811 30.4582 61.5522 29.27 61.1202 28.3368C60.8274 27.7042 60.2731 26.8614 59.3853 26.5183V25.4862C59.3869 24.3144 58.9853 23.177 58.2471 22.2675C57.5086 21.3578 56.4784 20.732 55.3305 20.4992L45.8503 18.5823C45.865 18.2809 45.7849 17.9757 45.6096 17.7137C45.1047 16.9588 44.2323 16.2164 43.2676 15.5541C42.2687 14.8684 41.0434 14.1828 39.7071 13.5732C37.9473 12.7704 35.9247 12.0676 33.9066 11.6866L33.5735 10.8565Z" fill="black"/>
<path d="M4.9977 39.7812L30.9477 44.998L31.0755 45.0225L31.2033 44.998L57.037 39.7825C56.8287 40.1516 56.5447 40.4718 56.2039 40.7218C55.8631 40.9718 55.4734 41.1458 55.0607 41.2322L31.0691 46.3138L6.97783 41.2309C6.5644 41.145 6.17392 40.9712 5.83247 40.7212C5.49101 40.4712 5.20642 40.1508 4.9977 39.7812ZM3.84721 38.8916L4.34448 39.9061C4.58778 40.4018 4.93975 40.8353 5.3738 41.1739C5.80785 41.5124 6.31263 41.7472 6.84999 41.8605L31.0729 46.9717L55.1962 41.8618C55.733 41.748 56.2373 41.5131 56.6708 41.1745C57.1044 40.836 57.456 40.4027 57.6991 39.9074L57.9382 38.9457L31.0691 44.3697L3.84082 38.8955L3.84721 38.8916Z" fill="white"/>
<path d="M54.8009 31.0397H54.6884C54.6299 31.04 54.574 31.0637 54.5328 31.1054C54.4916 31.1471 54.4685 31.2036 54.4685 31.2624V35.9217C54.4685 35.9539 54.4754 35.9858 54.4888 36.015C54.5021 36.0443 54.5216 36.0702 54.5459 36.0912C54.5702 36.1121 54.5988 36.1275 54.6295 36.1362C54.6603 36.145 54.6926 36.1469 54.7242 36.1419L54.7983 36.1303C55.054 36.0891 55.2355 35.8638 55.3531 35.4557C55.4707 35.0476 55.5282 34.4257 55.5282 33.5683C55.5282 32.6662 55.4699 32.019 55.3531 31.6268C55.2368 31.238 55.0527 31.0371 54.8009 31.0397Z" fill="white"/>
<path d="M54.6828 29.595H54.7352C54.9295 29.6015 55.0803 29.4212 55.189 29.0581C55.2976 28.6951 55.3513 28.1569 55.3513 27.4398C55.3513 26.7227 55.2976 26.173 55.189 25.7919C55.0803 25.4108 54.9333 25.1996 54.7339 25.1687H54.7186C54.687 25.1637 54.6547 25.1656 54.6239 25.1744C54.5931 25.1832 54.5646 25.1985 54.5403 25.2195C54.516 25.2404 54.4965 25.2664 54.4831 25.2956C54.4698 25.3249 54.4629 25.3567 54.4629 25.3889V29.371C54.4629 29.43 54.486 29.4866 54.5271 29.5285C54.5683 29.5704 54.6242 29.5943 54.6828 29.595Z" fill="white"/>
<path d="M55.0373 21.9065L30.8412 17.0142L6.74098 21.9039C5.92195 22.0719 5.18584 22.5201 4.65761 23.1725C4.12938 23.8248 3.84157 24.6412 3.84302 25.483V38.9421L30.9435 44.3893L57.9417 38.946V25.4843C57.9428 24.6418 57.654 23.8249 57.1245 23.1726C56.595 22.5202 55.8574 22.0729 55.0373 21.9065ZM8.1318 37.8182L7.75725 37.7422C7.71346 37.7333 7.67334 37.7114 7.64211 37.6793C7.61087 37.6471 7.58997 37.6062 7.58212 37.5619L6.92634 33.6841C6.91616 33.6295 6.88617 33.5806 6.84221 33.547C6.79824 33.5134 6.74344 33.4975 6.68846 33.5023C6.63348 33.5071 6.58223 33.5323 6.54469 33.5731C6.50715 33.6138 6.48598 33.6672 6.48532 33.7228V37.2182C6.48516 37.2511 6.4778 37.2836 6.46375 37.3133C6.4497 37.3431 6.42932 37.3693 6.40406 37.3902C6.37879 37.4111 6.34926 37.4262 6.31757 37.4343C6.28588 37.4424 6.25281 37.4433 6.2207 37.4371L5.99316 37.392C5.94263 37.3819 5.89716 37.3544 5.86452 37.3142C5.83188 37.2741 5.81409 37.2237 5.8142 37.1719V24.2394C5.81409 24.1878 5.83174 24.1378 5.86414 24.0979C5.89654 24.058 5.94169 24.0306 5.99188 24.0205L6.2207 23.9741C6.25281 23.9679 6.28588 23.9689 6.31757 23.977C6.34926 23.985 6.37879 24.0001 6.40406 24.021C6.42932 24.0419 6.4497 24.0681 6.46375 24.0979C6.4778 24.1276 6.48516 24.1601 6.48532 24.193V27.2945C6.48507 27.3507 6.50594 27.405 6.54375 27.4463C6.58156 27.4877 6.6335 27.5131 6.68916 27.5175C6.74482 27.5219 6.80007 27.505 6.84382 27.4701C6.88758 27.4351 6.9166 27.3848 6.92506 27.3293L7.46579 23.8711C7.47259 23.826 7.49306 23.7841 7.52441 23.7512C7.55576 23.7182 7.59645 23.6958 7.64092 23.687L8.01547 23.6124C8.05085 23.6051 8.08747 23.6066 8.12213 23.6169C8.15679 23.6271 8.18843 23.6457 8.21428 23.6711C8.24013 23.6965 8.25941 23.7279 8.27044 23.7626C8.28146 23.7972 8.2839 23.8341 8.27753 23.8699L7.15771 30.5814C7.15387 30.6065 7.15387 30.6322 7.15771 30.6573L8.39385 37.5594C8.40014 37.5952 8.39767 37.6321 8.38664 37.6667C8.3756 37.7014 8.35635 37.7328 8.33054 37.7583C8.30474 37.7838 8.27315 37.8026 8.23852 37.813C8.20389 37.8234 8.16726 37.8252 8.1318 37.8182ZM11.7367 38.5404L11.2803 38.4477C11.2351 38.439 11.1937 38.4161 11.162 38.3824C11.1304 38.3486 11.11 38.3058 11.1039 38.2598L9.73865 28.4468H9.70413V37.8516C9.70394 37.8846 9.69656 37.9171 9.68253 37.9469C9.66849 37.9767 9.64814 38.003 9.62291 38.024C9.59767 38.045 9.56817 38.0601 9.53649 38.0684C9.5048 38.0767 9.4717 38.0778 9.43952 38.0718L9.11099 38.0074C9.06022 37.9975 9.01446 37.9702 8.98156 37.93C8.94867 37.8898 8.9307 37.8393 8.93075 37.7873V23.6072C8.93075 23.5553 8.94877 23.505 8.98168 23.465C9.01459 23.4251 9.06033 23.398 9.11099 23.3884L9.50855 23.3098C9.53818 23.3041 9.56865 23.3045 9.5981 23.3111C9.62756 23.3176 9.65539 23.3301 9.67991 23.3478C9.70442 23.3655 9.7251 23.388 9.74069 23.4141C9.75628 23.4401 9.76646 23.469 9.77061 23.4991L11.0937 33.0636H11.1295V23.1669C11.1294 23.1154 11.147 23.0654 11.1794 23.0254C11.2118 22.9855 11.257 22.9582 11.3072 22.948L11.7341 22.8605C11.7664 22.854 11.7997 22.8548 11.8317 22.8629C11.8636 22.871 11.8934 22.8861 11.9188 22.9071C11.9443 22.9282 11.9647 22.9547 11.9788 22.9847C11.9928 23.0147 12.0001 23.0475 12 23.0807V38.319C12.0002 38.352 11.9931 38.3846 11.9793 38.4146C11.9655 38.4445 11.9453 38.471 11.9201 38.4922C11.895 38.5133 11.8655 38.5286 11.8338 38.537C11.802 38.5453 11.7689 38.5465 11.7367 38.5404ZM13.8612 38.9627L13.2975 38.852C13.2468 38.8424 13.2011 38.8152 13.1682 38.7753C13.1353 38.7353 13.1173 38.685 13.1173 38.6331V22.7652C13.1174 22.7134 13.1353 22.6632 13.1679 22.6231C13.2005 22.583 13.2458 22.5554 13.2962 22.5451L13.86 22.4331C13.8922 22.4266 13.9254 22.4274 13.9572 22.4354C13.9891 22.4434 14.0188 22.4584 14.0442 22.4793C14.0696 22.5002 14.0901 22.5266 14.1042 22.5564C14.1183 22.5862 14.1257 22.6189 14.1259 22.6519V38.7451C14.1257 38.778 14.1184 38.8105 14.1043 38.8402C14.0903 38.8699 14.0699 38.896 14.0446 38.9168C14.0193 38.9376 13.9897 38.9526 13.958 38.9605C13.9263 38.9684 13.8933 38.9692 13.8612 38.9627ZM19.1829 39.6064C18.9986 39.6857 18.8041 39.7381 18.6051 39.7622C18.2615 39.8026 17.9136 39.7843 17.576 39.7081C17.1422 39.6216 16.748 39.3957 16.4524 39.0644C16.1482 38.7322 15.898 38.2216 15.702 37.5323C15.4753 36.6515 15.3324 35.751 15.2751 34.8428C15.1847 33.7382 15.1391 32.3593 15.1383 30.7062C15.1374 29.0532 15.183 27.6743 15.2751 26.5697C15.3336 25.6643 15.47 24.7657 15.6829 23.884C15.8661 23.1974 16.097 22.6901 16.3757 22.3622C16.6286 22.0479 16.9811 21.8307 17.3741 21.7468C17.6935 21.6762 18.0226 21.6618 18.3469 21.7044C18.5413 21.7286 18.7311 21.7811 18.9106 21.8601C18.9489 21.8779 18.9814 21.9064 19.004 21.9423C19.0267 21.9781 19.0386 22.0198 19.0384 22.0623V23.1579C19.0382 23.2111 19.0191 23.2624 18.9847 23.3028C18.9503 23.3431 18.9027 23.3698 18.8505 23.3781L17.6783 23.5647C17.5579 23.5912 17.444 23.6416 17.3432 23.713C17.2425 23.7844 17.1569 23.8754 17.0916 23.9806C16.9177 24.22 16.7681 24.6114 16.6416 25.1509C16.4915 25.864 16.3949 26.5874 16.3527 27.3151C16.2862 28.2172 16.253 29.3476 16.253 30.7062C16.253 32.0649 16.2879 33.1953 16.3578 34.0974C16.4027 34.8259 16.5027 35.5498 16.6569 36.2629C16.7856 36.8036 16.9441 37.1946 17.1325 37.4358C17.285 37.6574 17.5177 37.8099 17.7806 37.8606C17.8122 37.8657 17.8444 37.8637 17.8752 37.855C17.906 37.8462 17.9345 37.8309 17.9588 37.8099C17.9831 37.789 18.0026 37.763 18.016 37.7338C18.0294 37.7045 18.0363 37.6727 18.0362 37.6405V30.1732C18.0366 30.1147 18.0596 30.0586 18.1005 30.017C18.1413 29.9754 18.1967 29.9515 18.2548 29.9505L19.0845 29.9364C19.1138 29.9358 19.143 29.9412 19.1703 29.9522C19.1976 29.9631 19.2224 29.9795 19.2433 30.0002C19.2643 30.0209 19.2809 30.0457 19.2923 30.0729C19.3036 30.1002 19.3095 30.1295 19.3095 30.1591V39.4043C19.3095 39.4466 19.2976 39.488 19.2752 39.5238C19.2528 39.5595 19.2208 39.5882 19.1829 39.6064ZM25.9337 41.3857L24.7053 41.1514C24.6546 41.1418 24.6089 41.1146 24.5759 41.0747C24.543 41.0347 24.525 40.9844 24.525 40.9325V31.9371C24.5247 31.8787 24.5018 31.8229 24.4612 31.7813C24.4207 31.7397 24.3656 31.7157 24.3077 31.7143L22.4311 31.6783C22.4016 31.6778 22.3723 31.6832 22.3448 31.6942C22.3174 31.7052 22.2924 31.7217 22.2714 31.7425C22.2503 31.7634 22.2336 31.7882 22.2221 31.8157C22.2107 31.8431 22.2049 31.8726 22.2049 31.9023V40.3789C22.2049 40.4119 22.1977 40.4445 22.1837 40.4744C22.1698 40.5042 22.1494 40.5306 22.1241 40.5515C22.0987 40.5725 22.0691 40.5875 22.0373 40.5955C22.0055 40.6035 21.9724 40.6043 21.9402 40.5978L20.9495 40.3982C20.8992 40.3881 20.8539 40.3608 20.8213 40.3209C20.7887 40.281 20.7708 40.231 20.7706 40.1793V21.2203C20.7707 21.1686 20.7883 21.1186 20.8207 21.0785C20.853 21.0384 20.8981 21.0107 20.9483 21.0001L21.9402 20.8031C21.9724 20.7967 22.0055 20.7974 22.0373 20.8054C22.0691 20.8134 22.0987 20.8285 22.1241 20.8494C22.1494 20.8703 22.1698 20.8967 22.1837 20.9266C22.1977 20.9564 22.2049 20.989 22.2049 21.022V29.2386C22.2048 29.2683 22.2108 29.2978 22.2223 29.3253C22.2338 29.3528 22.2507 29.3776 22.2719 29.3984C22.2931 29.4191 22.3182 29.4354 22.3458 29.4462C22.3734 29.457 22.4028 29.4621 22.4324 29.4613L24.309 29.4136C24.3667 29.4123 24.4217 29.3882 24.4621 29.3466C24.5024 29.305 24.525 29.2491 24.525 29.1909V20.462C24.5251 20.4103 24.5428 20.3603 24.5751 20.3202C24.6075 20.2801 24.6525 20.2524 24.7027 20.2418L25.9312 19.9959C25.9634 19.9892 25.9967 19.9898 26.0286 19.9977C26.0606 20.0056 26.0904 20.0206 26.1159 20.0416C26.1413 20.0625 26.1618 20.089 26.1759 20.1189C26.1899 20.1489 26.1972 20.1816 26.1971 20.2148V41.1655C26.1973 41.1985 26.1902 41.2311 26.1764 41.261C26.1626 41.2909 26.1424 41.3174 26.1172 41.3384C26.092 41.3595 26.0624 41.3747 26.0307 41.3828C25.999 41.391 25.9659 41.392 25.9337 41.3857ZM31.8217 42.2637L30.8808 42.4195L29.986 42.2122C29.9357 42.2021 29.8904 42.1748 29.8578 42.135C29.8252 42.0951 29.8072 42.045 29.807 41.9934V21.8048L27.3782 22.173V19.8878C27.3781 19.8362 27.3958 19.7862 27.4282 19.7463C27.4606 19.7064 27.5057 19.679 27.5559 19.6689L30.8859 18.9865L34.1175 19.6148C34.168 19.6252 34.2133 19.6527 34.2459 19.6928C34.2785 19.7329 34.2964 19.7831 34.2965 19.835V22.1073L31.8268 21.7327L31.8217 42.2637ZM39.6373 39.2962C39.1656 40.3107 38.3782 40.9351 37.2494 41.163C36.8127 41.2586 36.3643 41.289 35.9187 41.2531C35.6424 41.2323 35.3702 41.1739 35.1095 41.0793C35.068 41.0631 35.0323 41.0347 35.0072 40.9976C34.9821 40.9606 34.9688 40.9168 34.9689 40.872V39.5395C34.9689 39.4861 34.9878 39.4344 35.0222 39.3938C35.0567 39.3532 35.1044 39.3263 35.1568 39.318L36.9746 39.0284C37.2844 38.992 37.5797 38.8758 37.832 38.6912C38.0844 38.5065 38.2852 38.2595 38.4153 37.9739C38.6965 37.3886 38.8367 36.5612 38.8358 35.4917C38.8358 34.7193 38.7455 34.1094 38.5648 33.6622C38.3994 33.2391 38.1638 32.8473 37.8681 32.5035C37.5767 32.17 37.2664 31.8536 36.9388 31.556C36.5612 31.1985 36.237 30.7878 35.9762 30.3368C35.6296 29.7258 35.3713 29.0681 35.2092 28.3837C35.0021 27.5863 34.8986 26.5392 34.8986 25.2423C34.8986 23.5686 35.1543 22.2708 35.6554 21.3799C36.1565 20.489 36.8672 20.1723 37.7914 20.359C38.2214 20.4407 38.6382 20.5815 39.0301 20.7774C39.2954 20.9072 39.5443 21.0684 39.7716 21.2576C39.7948 21.2784 39.8133 21.304 39.8259 21.3327C39.8385 21.3613 39.8448 21.3924 39.8444 21.4237V22.5824C39.8442 22.6145 39.8372 22.6463 39.8238 22.6754C39.8103 22.7045 39.7908 22.7304 39.7666 22.7513C39.7423 22.7722 39.7139 22.7876 39.6832 22.7964C39.6525 22.8053 39.6203 22.8074 39.5888 22.8026L38.0548 22.5579C37.6189 22.4884 37.2712 22.7047 37.0168 23.2094C36.7624 23.7141 36.6333 24.4569 36.6333 25.4174C36.6333 26.2757 36.7304 26.9675 36.9247 27.4928C37.0963 27.97 37.3399 28.4177 37.647 28.8201C37.9255 29.1774 38.2279 29.515 38.5521 29.8308C38.8915 30.1713 39.185 30.5552 39.4251 30.9728C39.7224 31.5055 39.9427 32.0782 40.0796 32.6735C40.2501 33.3507 40.3353 34.2442 40.3353 35.354C40.3289 36.989 40.1001 38.2997 39.6373 39.2962ZM45.3463 39.0914C45.1727 39.2497 44.9798 39.3851 44.7724 39.4944C44.4692 39.6586 44.1429 39.775 43.8047 39.8395C43.6181 39.8834 43.4243 39.8862 43.2366 39.8478C43.0488 39.8094 42.8715 39.7305 42.7168 39.6167C42.3947 39.3824 42.1211 38.9241 41.9 38.2404C41.6788 37.5568 41.5063 36.5912 41.3886 35.3668C41.271 34.1425 41.2148 32.5808 41.2148 30.7024C41.2148 28.824 41.2723 27.2687 41.3886 26.0379C41.505 24.8071 41.6699 23.8493 41.8846 23.1643C42.0994 22.4794 42.3615 22.0185 42.6695 21.7816C42.812 21.6685 42.9777 21.5887 43.1545 21.5479C43.3314 21.5072 43.515 21.5065 43.6922 21.546C44.0321 21.6107 44.3602 21.7275 44.665 21.8923C44.8729 22.0021 45.0662 22.138 45.2402 22.2966C45.2612 22.3171 45.2779 22.3418 45.2891 22.369C45.3003 22.3962 45.3059 22.4255 45.3054 22.4549V23.4501C45.3052 23.4823 45.2982 23.514 45.2847 23.5431C45.2713 23.5723 45.2518 23.5982 45.2276 23.6191C45.2033 23.64 45.1749 23.6553 45.1442 23.6642C45.1135 23.673 45.0813 23.6751 45.0498 23.6703L44.1064 23.5197C43.9936 23.5042 43.8787 23.5176 43.7724 23.5585C43.6661 23.5995 43.5717 23.6667 43.4979 23.754C43.3112 23.948 43.1476 24.3106 43.007 24.8419C42.8372 25.5761 42.7286 26.3232 42.6823 27.0756C42.6056 28.0335 42.5673 29.2424 42.5673 30.7024C42.5673 32.1624 42.6077 33.3713 42.6887 34.3292C42.7365 35.0817 42.849 35.8286 43.0249 36.5616C43.1681 37.0929 43.3385 37.4538 43.5362 37.6443C43.6214 37.7337 43.7269 37.801 43.8436 37.8402C43.9602 37.8794 44.0847 37.8896 44.2061 37.8697L45.1431 37.7203C45.1747 37.7153 45.207 37.7172 45.2377 37.726C45.2685 37.7347 45.297 37.7501 45.3213 37.771C45.3456 37.7919 45.3651 37.8179 45.3785 37.8472C45.3919 37.8764 45.3988 37.9083 45.3987 37.9405V38.9331C45.4009 38.9617 45.3973 38.9904 45.3883 39.0176C45.3793 39.0448 45.3651 39.0699 45.3463 39.0914ZM49.1966 38.749L46.4853 39.2974C46.4531 39.3041 46.4198 39.3035 46.3879 39.2956C46.3559 39.2877 46.3261 39.2727 46.3006 39.2518C46.2752 39.2308 46.2546 39.2044 46.2406 39.1744C46.2266 39.1444 46.2193 39.1117 46.2194 39.0786V22.3417C46.2196 22.3087 46.227 22.2762 46.241 22.2464C46.2551 22.2166 46.2754 22.1903 46.3007 22.1693C46.3259 22.1483 46.3554 22.1331 46.3871 22.1249C46.4188 22.1166 46.4519 22.1155 46.484 22.1215L47.1322 22.2502C47.1825 22.2603 47.2278 22.2876 47.2604 22.3275C47.293 22.3674 47.3109 22.4174 47.3111 22.4691V36.9955C47.3111 37.0277 47.318 37.0596 47.3314 37.0889C47.3448 37.1182 47.3642 37.1442 47.3885 37.1653C47.4128 37.1863 47.4413 37.2018 47.472 37.2107C47.5028 37.2196 47.5351 37.2217 47.5668 37.2169L49.1187 36.9736C49.1503 36.9688 49.1826 36.9709 49.2134 36.9798C49.2442 36.9887 49.2727 37.0042 49.2969 37.0252C49.3212 37.0463 49.3407 37.0723 49.354 37.1016C49.3674 37.1309 49.3743 37.1628 49.3743 37.195V38.5314C49.3744 38.583 49.3568 38.633 49.3244 38.6729C49.292 38.7128 49.2468 38.7401 49.1966 38.7503V38.749ZM52.5203 36.9015C52.2787 37.7345 51.9041 38.2044 51.3864 38.3087C50.8687 38.413 50.4494 38.0834 50.1797 37.298C49.9099 36.5127 49.7681 35.1093 49.7681 33.1267V23.0523C49.7682 23.0194 49.7756 22.9869 49.7896 22.9572C49.8037 22.9274 49.824 22.9012 49.8493 22.8803C49.8746 22.8594 49.9041 22.8444 49.9358 22.8363C49.9675 22.8282 50.0006 22.8272 50.0327 22.8335L50.5095 22.9274C50.5599 22.9373 50.6054 22.9646 50.638 23.0045C50.6707 23.0444 50.6885 23.0946 50.6884 23.1463V33.07C50.6884 33.8305 50.7059 34.4562 50.7409 34.9471C50.7634 35.3364 50.8134 35.7237 50.8904 36.1058C50.9248 36.3139 51 36.5131 51.1116 36.6916C51.1401 36.7382 51.1812 36.7757 51.2301 36.7996C51.279 36.8236 51.3337 36.833 51.3877 36.8268C51.4464 36.8122 51.5012 36.7848 51.5483 36.7466C51.5953 36.7083 51.6335 36.6601 51.66 36.6054C51.7645 36.4037 51.8362 36.1863 51.8722 35.9616C51.9437 35.5789 51.9903 35.1918 52.0115 34.8029C52.0439 34.3214 52.0601 33.7142 52.0601 32.9812V23.5132C52.0601 23.4803 52.0673 23.4478 52.0812 23.418C52.0951 23.3883 52.1153 23.3619 52.1405 23.3409C52.1656 23.3199 52.195 23.3047 52.2266 23.2964C52.2583 23.2882 52.2913 23.287 52.3234 23.2931L52.6967 23.3665C52.7475 23.3763 52.7932 23.4037 52.8261 23.4439C52.859 23.4841 52.877 23.5345 52.8769 23.5866V32.931C52.8782 34.763 52.7606 36.0827 52.5228 36.9028L52.5203 36.9015ZM55.9104 36.4483C55.6944 37.1216 55.3275 37.5143 54.7995 37.6199C54.6064 37.6646 54.407 37.6751 54.2102 37.6508C54.0776 37.6295 53.95 37.5832 53.8344 37.5143C53.8003 37.4945 53.7719 37.466 53.7522 37.4316C53.7324 37.3973 53.722 37.3583 53.7219 37.3186V24.0874C53.7238 24.0484 53.7358 24.0106 53.7567 23.9776C53.7775 23.9447 53.8065 23.9177 53.8408 23.8995C53.9566 23.8308 54.084 23.7841 54.2166 23.7617C54.4129 23.7374 54.6119 23.7479 54.8046 23.7926C55.2495 23.8827 55.5716 24.2535 55.7711 24.9024C55.9705 25.5513 56.0702 26.3984 56.0702 27.4709C56.0697 28.0003 56.0214 28.5287 55.9257 29.0493C55.8685 29.4533 55.7344 29.8424 55.5307 30.1951V30.2711C55.7566 30.5354 55.93 30.9573 56.051 31.5367C56.1815 32.233 56.2419 32.9408 56.2313 33.6494C56.2313 34.8531 56.1252 35.784 55.913 36.4496L55.9104 36.4483Z" fill="white"/>
<path d="M30.8908 15.5163L17.0649 18.512C19.77 16.1154 25.6009 12.8201 30.8908 12.8201C36.1807 12.8201 43.0135 16.415 44.4161 18.512L30.8908 15.5163Z" fill="white"/>
<path d="M33.2951 14.0182H28.4861L29.6883 11.0225H32.0928L33.2951 14.0182Z" fill="white"/>
<path fill-rule="evenodd" clip-rule="evenodd" d="M58.5422 35.588C59.538 35.5874 60.3451 33.844 60.3451 31.6935C60.3451 29.5429 59.538 27.7995 58.5422 27.799V35.588Z" fill="white"/>
<path fill-rule="evenodd" clip-rule="evenodd" d="M3.23926 28.3981C2.24336 28.3983 1.43605 30.1419 1.43605 32.2926C1.43605 34.4434 2.24336 36.1869 3.23926 36.1871L3.23926 28.3981Z" fill="white"/>
<path fill-rule="evenodd" clip-rule="evenodd" d="M30.7393 1.4854C32.3688 1.61538 33.3676 2.34085 33.8672 3.36906C34.1849 4.02297 34.2822 4.76167 34.2612 5.47331L35.0983 5.06807C34.7381 6.42893 34.5712 8.68831 33.2068 9.43421C32.058 10.0622 30.1378 10.3277 29.0068 9.48262C27.7447 8.72269 26.7396 8.73949 25.9296 8.96669C25.1422 9.18758 24.4948 9.67197 23.7454 9.97145L23.7386 9.9742C20.9239 11.016 17.9715 10.0335 15.2612 9.16704C16.5145 8.92048 17.816 8.74751 19.015 8.29801C18.4237 8.21044 17.8331 8.1191 17.2422 8.02876C18.6551 6.66088 20.1152 5.36655 21.8891 4.45295L21.0271 4.45306C23.8768 2.21845 27.0413 1.19043 30.7393 1.4854ZM24.1128 3.67265C25.3549 3.07798 27.5812 2.33139 30.6465 2.57591C31.9223 2.67767 32.5375 3.20226 32.8449 3.83495C33.3845 4.94551 33.0572 6.22165 32.8585 7.37553L33.5724 7.03201C33.4196 7.54982 33.1663 8.19982 32.6514 8.48134C31.827 8.93202 30.4632 9.14456 29.6326 8.57109C28.0708 7.62068 26.7223 7.60515 25.6153 7.91569C24.7854 8.1485 24.1071 8.63991 23.3211 8.95731C22.1801 9.37732 20.8989 9.3544 19.7042 9.20709C20.671 8.80331 21.2695 8.16013 21.9628 7.42136C21.1827 7.42136 20.4315 7.39708 19.6605 7.28584C21.2464 5.9409 22.9852 5.00699 25.0193 4.51469C24.7298 4.23451 24.455 3.89379 24.1128 3.67265Z" fill="white"/>
<path fill-rule="evenodd" clip-rule="evenodd" d="M30.9942 46.3547L31.5954 46.467L43.6178 44.1225V44.8543C43.6178 44.9602 43.5615 45.0566 43.4679 45.1059C41.091 46.3587 35.937 48.564 30.9942 48.564V46.3547ZM17.769 43.8831L30.9938 46.3546V48.564C25.8068 48.564 20.3979 45.9489 17.9135 44.5649C17.8229 44.5145 17.769 44.4199 17.769 44.3162V43.8831Z" fill="white"/>
</svg>
