<svg width="138" height="146" viewBox="0 0 138 146" fill="none" xmlns="http://www.w3.org/2000/svg">
<path d="M8.54214 89.6535L69.2148 101.851L69.5137 101.908L69.8126 101.851L130.213 89.6565C129.726 90.5195 129.062 91.2682 128.265 91.8526C127.469 92.437 126.558 92.8438 125.593 93.0459L69.4987 104.927L13.1718 93.0429C12.2052 92.842 11.2922 92.4358 10.4939 91.8513C9.69552 91.2668 9.03014 90.5175 8.54214 89.6535ZM5.85222 87.5735L7.01486 89.9455C7.5837 91.1044 8.40663 92.1179 9.42147 92.9095C10.4363 93.7011 11.6165 94.2501 12.8729 94.5149L69.5077 106.465L125.909 94.5179C127.165 94.252 128.344 93.7026 129.357 92.9111C130.371 92.1196 131.193 91.1066 131.761 89.9485L132.32 87.6999L69.4987 100.382L5.83727 87.5825L5.85222 87.5735Z" fill="white"/>
<path d="M124.985 69.2151H124.722C124.586 69.2159 124.455 69.2712 124.358 69.3687C124.262 69.4663 124.208 69.5983 124.208 69.7359V80.6297C124.208 80.7049 124.224 80.7794 124.255 80.8477C124.287 80.9161 124.332 80.9769 124.389 81.0258C124.446 81.0747 124.513 81.1107 124.585 81.1311C124.656 81.1516 124.732 81.1561 124.806 81.1444L124.979 81.1173C125.577 81.021 126.001 80.4942 126.276 79.54C126.551 78.5858 126.686 77.1319 126.686 75.1271C126.686 73.018 126.549 71.5049 126.276 70.5878C126.004 69.6787 125.574 69.2091 124.985 69.2151Z" fill="white"/>
<path d="M124.709 65.8372H124.832C125.286 65.8523 125.639 65.4309 125.893 64.582C126.147 63.7331 126.273 62.4749 126.273 60.7982C126.273 59.1216 126.147 57.8362 125.893 56.9452C125.639 56.0542 125.295 55.5606 124.829 55.4883H124.793C124.719 55.4766 124.644 55.4811 124.572 55.5015C124.5 55.522 124.433 55.558 124.376 55.6069C124.32 55.6558 124.274 55.7166 124.243 55.785C124.211 55.8534 124.195 55.9278 124.195 56.0031V65.3135C124.195 65.4513 124.249 65.5837 124.345 65.6817C124.442 65.7798 124.572 65.8356 124.709 65.8372Z" fill="white"/>
<path d="M125.539 47.8612L68.9666 36.4226L12.6187 47.8552C10.7038 48.2478 8.98273 49.2958 7.74769 50.8211C6.51266 52.3464 5.83973 54.2552 5.84313 56.2234V87.6915L69.2057 100.427L132.329 87.7006V56.2264C132.332 54.2565 131.657 52.3464 130.419 50.8213C129.181 49.2962 127.456 48.2502 125.539 47.8612ZM15.8706 85.0637L14.9948 84.8861C14.8925 84.8653 14.7987 84.8141 14.7256 84.7389C14.6526 84.6637 14.6037 84.5682 14.5854 84.4647L13.0521 75.3981C13.0283 75.2703 12.9582 75.1561 12.8554 75.0775C12.7526 74.9989 12.6245 74.9617 12.4959 74.9729C12.3674 74.9842 12.2476 75.0432 12.1598 75.1384C12.072 75.2337 12.0225 75.3584 12.021 75.4884V83.6609C12.0206 83.7379 12.0034 83.8139 11.9706 83.8834C11.9377 83.9529 11.8901 84.0143 11.831 84.0632C11.7719 84.112 11.7029 84.1472 11.6288 84.1661C11.5547 84.185 11.4774 84.1873 11.4023 84.1727L10.8703 84.0673C10.7521 84.0436 10.6458 83.9793 10.5695 83.8854C10.4932 83.7916 10.4516 83.6739 10.4519 83.5526V53.3156C10.4516 53.195 10.4929 53.0781 10.5686 52.9848C10.6444 52.8915 10.75 52.8276 10.8673 52.8039L11.4023 52.6955C11.4774 52.6809 11.5547 52.6831 11.6288 52.7021C11.7029 52.721 11.7719 52.7561 11.831 52.805C11.8901 52.8539 11.9377 52.9152 11.9706 52.9848C12.0034 53.0543 12.0206 53.1302 12.021 53.2072V60.4587C12.0204 60.5901 12.0692 60.717 12.1576 60.8137C12.246 60.9104 12.3675 60.9699 12.4976 60.9802C12.6277 60.9905 12.7569 60.9508 12.8592 60.8692C12.9615 60.7875 13.0294 60.6699 13.0491 60.54L14.3134 52.4547C14.3293 52.3492 14.3772 52.2512 14.4504 52.1742C14.5237 52.0971 14.6189 52.0447 14.7229 52.0242L15.5986 51.8496C15.6813 51.8326 15.7669 51.8362 15.848 51.8601C15.929 51.8841 16.003 51.9277 16.0634 51.9871C16.1239 52.0465 16.1689 52.1199 16.1947 52.2008C16.2205 52.2818 16.2262 52.368 16.2113 52.4517L13.5931 68.1436C13.5841 68.2025 13.5841 68.2623 13.5931 68.3212L16.4833 84.4586C16.498 84.5424 16.4922 84.6286 16.4664 84.7097C16.4406 84.7907 16.3956 84.8642 16.3352 84.9238C16.2749 84.9834 16.2011 85.0273 16.1201 85.0516C16.0391 85.076 15.9535 85.0801 15.8706 85.0637ZM24.299 86.7524L23.232 86.5356C23.1262 86.5152 23.0294 86.4617 22.9554 86.3829C22.8814 86.304 22.8339 86.2037 22.8195 86.0962L19.6275 63.1528H19.5468V85.1419C19.5463 85.219 19.5291 85.295 19.4963 85.3647C19.4635 85.4343 19.4159 85.4958 19.3569 85.5449C19.2979 85.594 19.2289 85.6294 19.1548 85.6488C19.0807 85.6681 19.0033 85.6708 18.9281 85.6567L18.16 85.5062C18.0413 85.4831 17.9343 85.4191 17.8574 85.3251C17.7805 85.2312 17.7385 85.1132 17.7386 84.9914V51.8376C17.7386 51.7162 17.7807 51.5986 17.8576 51.5052C17.9346 51.4118 18.0415 51.3483 18.16 51.3259L19.0895 51.1423C19.1588 51.1289 19.23 51.1299 19.2989 51.1452C19.3678 51.1605 19.4328 51.1897 19.4901 51.2311C19.5474 51.2725 19.5958 51.3252 19.6323 51.386C19.6687 51.4468 19.6925 51.5144 19.7022 51.5847L22.7956 73.9472H22.8793V50.8081C22.879 50.6876 22.9203 50.5707 22.9961 50.4774C23.0718 50.384 23.1774 50.3201 23.2947 50.2964L24.293 50.0917C24.3685 50.0766 24.4464 50.0785 24.5211 50.0973C24.5958 50.1162 24.6654 50.1515 24.7249 50.2008C24.7844 50.25 24.8322 50.312 24.8651 50.3821C24.8979 50.4523 24.9148 50.5289 24.9147 50.6064V86.2346C24.9151 86.3118 24.8986 86.3881 24.8663 86.4582C24.834 86.5282 24.7868 86.5901 24.7279 86.6396C24.6691 86.6891 24.6001 86.7248 24.526 86.7443C24.4518 86.7638 24.3743 86.7666 24.299 86.7524ZM29.2664 87.7397L27.9483 87.4808C27.8299 87.4584 27.7229 87.3949 27.646 87.3015C27.569 87.2081 27.5269 87.0905 27.5269 86.9691V49.869C27.5272 49.7478 27.569 49.6304 27.6452 49.5367C27.7214 49.4429 27.8274 49.3785 27.9453 49.3542L29.2634 49.0923C29.3387 49.0772 29.4163 49.0791 29.4908 49.0978C29.5652 49.1165 29.6347 49.1515 29.6941 49.2005C29.7535 49.2494 29.8015 49.3109 29.8345 49.3807C29.8675 49.4505 29.8848 49.5268 29.8851 49.6041V87.231C29.8848 87.3079 29.8676 87.3838 29.8347 87.4532C29.8019 87.5226 29.7541 87.5839 29.695 87.6325C29.6358 87.6811 29.5667 87.716 29.4926 87.7345C29.4185 87.753 29.3412 87.7548 29.2664 87.7397ZM41.7087 89.2448C41.2778 89.4301 40.823 89.5527 40.3578 89.609C39.5545 89.7034 38.7411 89.6607 37.9518 89.4826C36.9376 89.2801 36.0158 88.7521 35.3247 87.9775C34.6133 87.2009 34.0285 86.0069 33.5702 84.3954C33.0402 82.336 32.7059 80.2304 32.572 78.1072C32.3608 75.5245 32.2542 72.3006 32.2522 68.4356C32.2502 64.5705 32.3568 61.3467 32.572 58.764C32.7089 56.6471 33.0279 54.5461 33.5254 52.4848C33.9538 50.8794 34.4938 49.6934 35.1453 48.9268C35.7367 48.1919 36.5608 47.684 37.4796 47.4879C38.2264 47.3228 38.9959 47.2892 39.7541 47.3886C40.2086 47.4453 40.6525 47.568 41.0721 47.7528C41.1617 47.7944 41.2375 47.8611 41.2905 47.9449C41.3435 48.0287 41.3715 48.1261 41.371 48.2254V50.7871C41.3704 50.9114 41.3258 51.0315 41.2453 51.1258C41.1648 51.2201 41.0536 51.2825 40.9317 51.3018L38.1909 51.7383C37.9095 51.8 37.6431 51.9179 37.4075 52.0849C37.1719 52.2518 36.9718 52.4646 36.8191 52.7105C36.4126 53.2704 36.0629 54.1855 35.767 55.4468C35.4161 57.114 35.1903 58.8055 35.0915 60.5068C34.9361 62.616 34.8584 65.2589 34.8584 68.4356C34.8584 71.6123 34.9401 74.2552 35.1035 76.3643C35.2084 78.0675 35.4422 79.7601 35.8029 81.4274C36.1037 82.6917 36.4744 83.6058 36.9147 84.1697C37.2713 84.6878 37.8153 85.0444 38.43 85.163C38.5039 85.1748 38.5794 85.1702 38.6513 85.1498C38.7232 85.1293 38.7899 85.0934 38.8467 85.0444C38.9036 84.9955 38.9492 84.9348 38.9804 84.8664C39.0117 84.798 39.0278 84.7236 39.0278 84.6483V67.1894C39.0286 67.0525 39.0825 66.9214 39.178 66.8241C39.2735 66.7268 39.403 66.671 39.5389 66.6686L41.4786 66.6355C41.5473 66.6343 41.6155 66.6469 41.6792 66.6725C41.743 66.6982 41.8011 66.7363 41.85 66.7848C41.899 66.8333 41.9379 66.8911 41.9644 66.9549C41.991 67.0187 42.0046 67.0871 42.0046 67.1563V88.7722C42.0046 88.8711 41.9768 88.9679 41.9245 89.0515C41.8721 89.1352 41.7973 89.2022 41.7087 89.2448ZM57.4926 93.4048L54.6204 92.857C54.5019 92.8345 54.395 92.7711 54.318 92.6776C54.2411 92.5842 54.199 92.4666 54.1989 92.3452V71.3133C54.1982 71.177 54.1447 71.0463 54.0498 70.9491C53.955 70.8518 53.8262 70.7957 53.6908 70.7925L49.3033 70.7083C49.2342 70.7071 49.1657 70.7197 49.1015 70.7455C49.0374 70.7713 48.979 70.8097 48.9297 70.8584C48.8805 70.9072 48.8414 70.9653 48.8147 71.0295C48.788 71.0936 48.7743 71.1625 48.7743 71.232V91.0509C48.7744 91.128 48.7576 91.2043 48.7249 91.2741C48.6922 91.3439 48.6446 91.4055 48.5854 91.4544C48.5262 91.5034 48.4569 91.5385 48.3826 91.5572C48.3082 91.5759 48.2307 91.5778 48.1556 91.5626L45.8393 91.096C45.7216 91.0724 45.6157 91.0086 45.5394 90.9153C45.4632 90.8221 45.4213 90.7051 45.4208 90.5843V46.2568C45.421 46.136 45.4624 46.019 45.538 45.9253C45.6136 45.8316 45.7189 45.7669 45.8363 45.742L48.1556 45.2815C48.2307 45.2663 48.3082 45.2682 48.3826 45.2869C48.4569 45.3056 48.5262 45.3407 48.5854 45.3897C48.6446 45.4386 48.6922 45.5002 48.7249 45.57C48.7576 45.6398 48.7744 45.7161 48.7743 45.7932V65.004C48.7742 65.0737 48.7881 65.1427 48.815 65.2068C48.8419 65.271 48.8814 65.3291 48.931 65.3777C48.9806 65.4262 49.0393 65.4643 49.1038 65.4895C49.1683 65.5148 49.2371 65.5268 49.3063 65.5248L53.6938 65.4134C53.8289 65.4102 53.9574 65.354 54.0518 65.2567C54.1461 65.1594 54.199 65.0287 54.1989 64.8926V44.4838C54.1991 44.363 54.2405 44.246 54.3161 44.1523C54.3917 44.0586 54.497 43.9939 54.6144 43.9691L57.4866 43.3941C57.562 43.3784 57.6398 43.3799 57.7145 43.3984C57.7892 43.4168 57.8589 43.4519 57.9184 43.5009C57.978 43.5499 58.026 43.6117 58.0588 43.6818C58.0916 43.7518 58.1086 43.8284 58.1083 43.9058V92.8901C58.1088 92.9672 58.0923 93.0434 58.06 93.1133C58.0277 93.1832 57.9804 93.2451 57.9215 93.2943C57.8626 93.3436 57.7936 93.379 57.7194 93.3981C57.6452 93.4172 57.5678 93.4195 57.4926 93.4048ZM71.259 95.4577L69.0593 95.822L66.9671 95.3373C66.8495 95.3137 66.7435 95.2499 66.6673 95.1566C66.591 95.0634 66.5491 94.9464 66.5487 94.8256V47.6234L60.8699 48.4843V43.1413C60.8697 43.0207 60.911 42.9038 60.9867 42.8105C61.0625 42.7172 61.168 42.6532 61.2854 42.6295L69.0712 41.0342L76.6269 42.5031C76.7448 42.5274 76.8508 42.5918 76.927 42.6855C77.0032 42.7793 77.045 42.8967 77.0453 43.0179V48.3308L71.271 47.4548L71.259 95.4577ZM89.5326 88.5193C88.4297 90.8913 86.5886 92.3513 83.9495 92.8841C82.9282 93.1077 81.8799 93.1787 80.8381 93.0948C80.1921 93.0462 79.5557 92.9095 78.9462 92.6884C78.8492 92.6506 78.7658 92.5841 78.7071 92.4975C78.6484 92.411 78.6171 92.3086 78.6174 92.2038V89.0883C78.6174 88.9634 78.6616 88.8426 78.7422 88.7476C78.8227 88.6527 78.9343 88.5899 79.0568 88.5705L83.3069 87.8932C84.0313 87.8081 84.7217 87.5366 85.3116 87.1048C85.9016 86.673 86.3712 86.0955 86.6753 85.4279C87.3328 84.0593 87.6606 82.1248 87.6586 79.6243C87.6586 77.8182 87.4474 76.3924 87.025 75.3469C86.6382 74.3575 86.0874 73.4414 85.396 72.6378C84.7146 71.8579 83.9891 71.1182 83.2232 70.4223C82.3403 69.5865 81.5823 68.6263 80.9726 67.5717C80.1622 66.1432 79.5583 64.6056 79.1793 63.0053C78.6952 61.141 78.4531 58.6927 78.4531 55.6605C78.4531 51.7473 79.0508 48.7131 80.2224 46.63C81.394 44.547 83.0558 43.8065 85.2167 44.243C86.222 44.434 87.1965 44.7632 88.1129 45.2213C88.733 45.5248 89.3149 45.9017 89.8464 46.3441C89.9007 46.3927 89.944 46.4526 89.9734 46.5196C90.0028 46.5866 90.0176 46.6591 90.0167 46.7324V49.4415C90.0163 49.5167 89.9998 49.5908 89.9684 49.659C89.937 49.7271 89.8914 49.7876 89.8347 49.8365C89.778 49.8853 89.7115 49.9213 89.6398 49.9419C89.568 49.9626 89.4927 49.9675 89.419 49.9563L85.8324 49.3843C84.8132 49.2218 84.0003 49.7275 83.4055 50.9075C82.8107 52.0874 82.5089 53.8243 82.5089 56.0699C82.5089 58.0766 82.736 59.6941 83.1903 60.9222C83.5915 62.038 84.1611 63.0848 84.879 64.0257C85.5301 64.861 86.2371 65.6504 86.9951 66.3887C87.7887 67.1848 88.4751 68.0825 89.0364 69.0587C89.7313 70.3043 90.2466 71.6432 90.5667 73.0351C90.9652 74.6184 91.1644 76.7075 91.1644 79.3022C91.1495 83.1251 90.6145 86.1895 89.5326 88.5193ZM102.881 88.0407C102.475 88.4106 102.024 88.7272 101.539 88.9829C100.83 89.3668 100.067 89.6388 99.276 89.7896C98.8399 89.8923 98.3868 89.899 97.9478 89.8091C97.5088 89.7192 97.0943 89.5349 96.7326 89.2689C95.9794 88.721 95.3398 87.6494 94.8227 86.051C94.3057 84.4526 93.9022 82.195 93.6272 79.3323C93.3522 76.4697 93.2207 72.8184 93.2207 68.4266C93.2207 64.0347 93.3552 60.3985 93.6272 57.5208C93.8992 54.6431 94.2847 52.4035 94.7869 50.8021C95.289 49.2007 95.9017 48.1231 96.622 47.5692C96.9551 47.3047 97.3425 47.1181 97.756 47.0229C98.1695 46.9276 98.5989 46.9261 99.013 47.0183C99.8078 47.1697 100.575 47.4427 101.288 47.8281C101.774 48.0848 102.226 48.4024 102.632 48.7733C102.682 48.8213 102.72 48.8789 102.747 48.9425C102.773 49.0062 102.786 49.0746 102.785 49.1435V51.4704C102.784 51.5455 102.768 51.6197 102.737 51.6878C102.705 51.7559 102.66 51.8165 102.603 51.8653C102.546 51.9141 102.48 51.9501 102.408 51.9708C102.336 51.9914 102.261 51.9963 102.187 51.9851L99.9814 51.6329C99.7177 51.5968 99.4492 51.628 99.2005 51.7237C98.9519 51.8195 98.7312 51.9766 98.5587 52.1808C98.1224 52.6343 97.7398 53.4822 97.411 54.7243C97.0141 56.4409 96.7601 58.1878 96.6519 59.947C96.4725 62.1865 96.3829 65.013 96.3829 68.4266C96.3829 71.8401 96.4775 74.6666 96.6668 76.9062C96.7787 78.6656 97.0417 80.412 97.4529 82.1258C97.7876 83.368 98.1861 84.2118 98.6484 84.6573C98.8476 84.8663 99.0941 85.0235 99.367 85.1152C99.6398 85.207 99.9306 85.2306 100.215 85.1841L102.405 84.8349C102.479 84.8232 102.555 84.8277 102.627 84.8481C102.699 84.8686 102.765 84.9045 102.822 84.9535C102.879 85.0024 102.924 85.0632 102.956 85.1315C102.987 85.1999 103.003 85.2743 103.003 85.3496V87.6705C103.008 87.7373 103 87.8044 102.979 87.868C102.958 87.9315 102.924 87.9903 102.881 88.0407ZM111.883 87.24L105.544 88.5223C105.468 88.538 105.39 88.5366 105.316 88.5181C105.241 88.4996 105.171 88.4646 105.112 88.4156C105.052 88.3665 105.004 88.3048 104.971 88.2347C104.939 88.1646 104.922 88.0881 104.922 88.0106V48.8786C104.922 48.8015 104.94 48.7255 104.972 48.6559C105.005 48.5863 105.053 48.5247 105.112 48.4757C105.171 48.4266 105.24 48.3911 105.314 48.3718C105.388 48.3525 105.465 48.3498 105.541 48.3639L107.056 48.6649C107.174 48.6885 107.279 48.7523 107.356 48.8456C107.432 48.9389 107.474 49.0558 107.474 49.1766V83.1402C107.474 83.2156 107.491 83.2901 107.522 83.3586C107.553 83.4271 107.599 83.488 107.655 83.5372C107.712 83.5863 107.779 83.6225 107.851 83.6434C107.923 83.6642 107.998 83.6692 108.072 83.6579L111.7 83.089C111.775 83.0777 111.85 83.0827 111.922 83.1036C111.994 83.1244 112.061 83.1606 112.117 83.2098C112.174 83.2589 112.22 83.3199 112.251 83.3884C112.282 83.4569 112.298 83.5314 112.298 83.6068V86.7313C112.299 86.8518 112.257 86.9687 112.181 87.0621C112.106 87.1554 112 87.2193 111.883 87.243V87.24ZM119.654 82.9204C119.089 84.868 118.213 85.9667 117.003 86.2105C115.792 86.4544 114.812 85.6838 114.181 83.8476C113.551 82.0114 113.219 78.7303 113.219 74.0947V50.5402C113.219 50.4632 113.236 50.3873 113.269 50.3178C113.302 50.2482 113.35 50.1869 113.409 50.138C113.468 50.0891 113.537 50.054 113.611 50.0351C113.685 50.0161 113.762 50.0139 113.837 50.0285L114.952 50.2482C115.07 50.2713 115.176 50.335 115.253 50.4284C115.329 50.5218 115.371 50.639 115.371 50.76V73.9622C115.371 75.7402 115.412 77.2032 115.493 78.351C115.546 79.2613 115.663 80.1666 115.843 81.0602C115.923 81.5467 116.099 82.0123 116.36 82.4298C116.427 82.5388 116.523 82.6264 116.637 82.6823C116.752 82.7383 116.879 82.7603 117.006 82.7459C117.143 82.7118 117.271 82.6477 117.381 82.5583C117.491 82.4688 117.58 82.3561 117.642 82.2281C117.887 81.7565 118.054 81.2483 118.138 80.723C118.306 79.8281 118.414 78.9231 118.464 78.0139C118.54 76.8881 118.578 75.4683 118.578 73.7545V51.6179C118.578 51.5409 118.595 51.4649 118.627 51.3953C118.66 51.3257 118.707 51.2641 118.766 51.2149C118.824 51.1658 118.893 51.1303 118.967 51.111C119.041 51.0917 119.118 51.089 119.193 51.1031L120.066 51.2747C120.185 51.2978 120.292 51.3618 120.369 51.4558C120.446 51.5497 120.488 51.6677 120.488 51.7894V73.6371C120.491 77.9206 120.216 81.006 119.66 82.9235L119.654 82.9204ZM127.58 81.8609C127.075 83.4352 126.217 84.3533 124.983 84.6001C124.531 84.7047 124.065 84.7292 123.605 84.6724C123.295 84.6226 122.997 84.5143 122.726 84.3533C122.646 84.3069 122.58 84.2402 122.534 84.1599C122.488 84.0796 122.463 83.9885 122.463 83.8957V52.9604C122.468 52.8692 122.496 52.7807 122.544 52.7036C122.593 52.6266 122.661 52.5636 122.741 52.5209C123.012 52.3603 123.31 52.2511 123.62 52.1988C124.079 52.142 124.544 52.1664 124.995 52.2711C126.035 52.4818 126.788 53.3487 127.254 54.8658C127.72 56.3829 127.954 58.3636 127.954 60.8711C127.953 62.109 127.839 63.3443 127.616 64.5615C127.482 65.5061 127.169 66.4157 126.692 67.2406V67.4182C127.22 68.0362 127.626 69.0226 127.909 70.3771C128.214 72.0052 128.355 73.6602 128.33 75.3168C128.33 78.1313 128.082 80.3076 127.586 81.8639L127.58 81.8609Z" fill="white"/>
<path d="M69.083 32.9206L36.7573 39.9249C43.0819 34.3215 56.7149 26.6167 69.083 26.6167C81.4511 26.6167 97.4266 35.0219 100.706 39.9249L69.083 32.9206Z" fill="white"/>
<path d="M74.7043 29.4184H63.4605L66.2715 22.4141H71.8933L74.7043 29.4184Z" fill="white"/>
<path fill-rule="evenodd" clip-rule="evenodd" d="M133.734 79.8498C136.063 79.8493 137.95 75.7728 137.95 70.7442C137.95 65.7156 136.063 61.639 133.734 61.6385V79.8498Z" fill="white"/>
<path fill-rule="evenodd" clip-rule="evenodd" d="M4.43159 63.039C2.10312 63.0395 0.215581 67.116 0.21558 72.1446C0.21558 77.1732 2.10311 81.2498 4.43159 81.2502L4.43159 63.039Z" fill="white"/>
<path fill-rule="evenodd" clip-rule="evenodd" d="M68.7295 0.115705C72.5394 0.419597 74.8747 2.1158 76.0428 4.51983C76.7856 6.04871 77.0131 7.77584 76.9639 9.4397L78.9213 8.49221C78.079 11.674 77.6887 16.9566 74.4986 18.7005C71.8128 20.1689 67.3231 20.7896 64.6789 18.8137C61.7279 17.0369 59.378 17.0762 57.4842 17.6074C55.6431 18.1239 54.1296 19.2564 52.3774 19.9566L52.3614 19.963C45.7806 22.3988 38.8775 20.1016 32.5409 18.0759C35.4712 17.4994 38.5141 17.095 41.3174 16.044C39.935 15.8393 38.5539 15.6257 37.1725 15.4145C40.476 12.2163 43.8899 9.19008 48.0372 7.05402L46.0219 7.05428C52.6847 1.82962 60.0833 -0.573961 68.7295 0.115705ZM53.2364 5.22963C56.1405 3.83925 61.3456 2.09369 68.5127 2.66537C71.4955 2.9033 72.9339 4.12984 73.6526 5.60911C74.9142 8.20566 74.1489 11.1894 73.6844 13.8872L75.3535 13.084C74.9964 14.2947 74.4041 15.8145 73.2001 16.4727C71.2727 17.5264 68.084 18.0233 66.1421 16.6825C62.4904 14.4604 59.3377 14.4241 56.7493 15.1501C54.8089 15.6945 53.223 16.8434 51.3854 17.5855C48.7175 18.5675 45.7221 18.5139 42.9289 18.1695C45.1893 17.2255 46.5885 15.7217 48.2095 13.9944C46.3856 13.9944 44.6293 13.9376 42.8265 13.6775C46.5345 10.533 50.6001 8.3494 55.3557 7.19838C54.6791 6.5433 54.0365 5.74668 53.2364 5.22963Z" fill="white"/>
<path fill-rule="evenodd" clip-rule="evenodd" d="M69.3252 105.023L70.7305 105.285L97.9852 99.9703C97.0921 101.96 95.5304 103.602 93.4484 104.501C87.1626 107.215 78.1015 110.188 69.3252 110.188V105.023ZM39.5659 99.4611L69.3241 105.022V110.188C59.9103 110.188 50.1837 106.504 43.5854 103.342C41.8256 102.499 40.4544 101.12 39.5659 99.4611Z" fill="white"/>
<path d="M15.0068 134.505V136.972H17.9314V138.946H15.0068V141.414H20.4661V134.505H15.0068ZM13.5027 134.505V143.213H16.0095V134.505H13.5027ZM12.7228 121.269V124.084H25.9532V121.269H12.7228ZM11.9708 130.238V133.228H26.5939V130.238H11.9708ZM21.9145 131.573V142.488C21.9145 142.836 21.8031 142.952 21.3852 142.952C20.9953 142.952 19.6305 142.952 18.4049 142.894C18.8506 143.736 19.4076 145.042 19.5748 145.971C21.3852 145.971 22.7501 145.884 23.7528 145.419C24.7834 144.897 25.0898 144.084 25.0898 142.546V131.573H21.9145ZM17.9314 118.801C17.7643 123.997 17.3186 126.61 12.0822 128.032C12.6671 128.583 13.4191 129.716 13.6698 130.47C19.8812 128.671 20.7725 125.1 20.9674 118.801H17.9314ZM17.9593 126.319C19.8812 127.509 22.6108 129.28 23.9199 130.325L25.9811 128.061C24.5605 127.016 21.8031 125.39 19.909 124.316L17.9593 126.319ZM3.1412 124.258L3.1412 126.871H10.8009V124.258H3.1412ZM3.1412 128.671V131.312H10.8009V128.671H3.1412ZM5.87085 121.443L5.87085 134.534H8.32195V121.443H5.87085ZM6.84572 136.972C7.37493 138.163 7.8763 139.73 8.01556 140.746L9.29683 140.224C9.12971 139.237 8.60049 137.669 8.07127 136.537L6.84572 136.972ZM5.14665 137.35C5.5366 138.859 5.87085 140.833 5.92655 142.11L7.29137 141.762C7.23567 140.543 6.87357 138.598 6.45577 137.089L5.14665 137.35ZM3.41974 137.553C3.64256 139.295 3.72613 141.472 3.64256 142.952L5.06309 142.749C5.14665 141.327 5.03524 139.091 4.78456 137.379L3.41974 137.553ZM1.35858 136.972C1.1636 138.946 0.7458 141.704 0.216583 143.417L1.97135 144.171C2.47272 142.43 2.80696 139.614 3.05764 137.582L1.35858 136.972ZM9.21327 133.083V133.576C8.96258 139.933 8.68405 142.284 8.26625 142.836C8.07127 143.155 7.84844 143.213 7.5142 143.213C7.15211 143.213 6.42792 143.213 5.62016 143.126C5.98226 143.852 6.23294 144.984 6.28865 145.826C7.29137 145.855 8.21054 145.826 8.79546 145.739C9.4918 145.652 9.99316 145.39 10.4667 144.723C11.1352 143.794 11.4415 141.123 11.7479 134.273C11.7758 133.896 11.8036 133.083 11.8036 133.083H9.21327ZM11.2744 119.759H1.58141L1.58141 135.811H10.2438V133.083H4.08822L4.08822 122.488H11.2744V119.759Z" fill="white"/>
<path d="M30.2427 141.152V144.636H52.609V141.152H30.2427ZM28.7107 127.393V130.848H54.0853V127.393H28.7107ZM39.49 118.743V143.591H43.0831V118.743H39.49Z" fill="white"/>
<path d="M63.444 136.392V139.469H82.0223V136.392H63.444ZM74.3905 141.21C76.3124 142.604 78.8749 144.665 80.0447 146L82.3009 143.591C81.0475 142.255 78.4014 140.34 76.4795 139.062L74.3905 141.21ZM69.154 139.091C67.7613 140.717 65.5052 142.459 63.3326 143.504C64.029 144.142 64.9481 145.245 65.3938 146C67.6499 144.839 70.0732 143.068 71.7165 141.036L69.154 139.091ZM66.0066 119.759V137.785H69.1819V122.546H76.5909V137.785H79.9055V119.759H66.0066ZM67.5664 124.2V126.523H77.8722V124.2H67.5664ZM67.5664 128.235V130.557H77.8722V128.235H67.5664ZM67.5664 132.299V134.65H77.8722V132.299H67.5664ZM61.8842 118.772C60.4637 122.923 58.0683 127.074 55.5336 129.687C56.0907 130.528 57.0099 132.444 57.3163 133.315C60.3523 129.977 63.2491 124.752 65.0595 119.788L61.8842 118.772ZM59.2103 126.813V145.913H62.3856V123.533V123.504L59.2103 126.813Z" fill="white"/>
<path d="M84.4177 134.708V137.582H109.681V134.708H84.4177ZM95.4756 133.315V145.855H98.8458V133.315H95.4756ZM96.0048 128.09H98.066V130.093H96.0048V128.09ZM96.0048 123.736H98.066V125.71H96.0048V123.736ZM93.1637 121.21V132.647H101.018V121.21H93.1637ZM95.8934 118.482C95.8098 119.498 95.5034 120.978 95.2249 122.023L97.4253 122.575C97.8431 121.675 98.3723 120.311 98.9016 119.004L95.8934 118.482ZM106.673 128.787C107.118 130.412 107.564 132.502 107.703 133.925L109.932 133.286C109.737 131.922 109.263 129.832 108.79 128.235L106.673 128.787ZM89.877 128.409C90.267 130.064 90.6569 132.212 90.7683 133.663L93.0245 133.083C92.8573 131.66 92.4395 129.541 92.0217 127.916L89.877 128.409ZM85.309 127.771C85.309 127.248 86.8131 126.435 86.8131 126.435V126.348C88.0665 124.752 89.5149 122.255 90.4619 119.933L87.8716 119.004C87.2588 121.24 86.0332 123.533 85.6433 124.113C85.2533 124.752 84.8634 125.158 84.4734 125.274C84.752 125.942 85.1698 127.248 85.309 127.771ZM85.309 127.771C85.7547 127.538 86.5346 127.364 90.072 126.929C90.0999 126.377 90.1834 125.419 90.3227 124.723L86.3675 125.042L85.2533 125.826L85.309 127.771ZM85.2255 133.489C85.2255 132.996 86.5625 132.183 86.5625 132.183V132.096C88.8186 129.89 91.1861 126.755 92.913 123.678L90.5455 122.314C89.2085 125.361 86.8688 128.583 86.1725 129.396C85.4762 130.209 84.947 130.79 84.362 130.906C84.6963 131.631 85.1141 132.938 85.2255 133.489ZM85.2255 133.489C85.7547 133.199 86.646 132.967 91.8546 132.241C91.8546 131.718 91.9103 130.732 92.0217 130.064L86.2839 130.732L85.1419 131.515L85.2255 133.489ZM101.882 127.945C101.882 127.393 103.414 126.552 103.414 126.552V126.494C104.695 124.839 106.199 122.255 107.146 119.817L104.472 119.004C103.804 121.24 102.578 123.591 102.188 124.2C101.798 124.81 101.408 125.274 101.018 125.361C101.325 126.058 101.743 127.364 101.882 127.945ZM101.882 127.945C102.355 127.713 103.191 127.48 107.23 127.016C107.258 126.435 107.341 125.39 107.48 124.665L102.968 125.1L101.798 125.884L101.882 127.945ZM102.077 133.663C102.077 133.141 103.47 132.328 103.47 132.328V132.241C105.781 130.093 108.177 126.929 109.959 123.91L107.536 122.488C106.143 125.536 103.748 128.7 103.024 129.512C102.328 130.354 101.798 130.877 101.213 131.022C101.52 131.747 101.938 133.112 102.077 133.663ZM102.077 133.663C102.634 133.402 103.553 133.199 108.873 132.618C108.873 132.096 108.985 131.08 109.124 130.383L103.219 130.906L101.993 131.689L102.077 133.663ZM91.7154 138.424C90.0441 140.136 86.7853 141.588 83.6378 142.226C84.362 142.894 85.3648 144.229 85.8383 145.1C89.1807 144.142 92.4953 142.023 94.445 139.498L91.7154 138.424ZM100.239 140.282C102.717 141.704 106.032 143.881 107.592 145.332L109.737 142.836C108.038 141.414 104.639 139.382 102.216 138.105L100.239 140.282Z" fill="white"/>
<path d="M127.953 120.049V145.797H130.877V123.184H135.25V120.049H127.953ZM134.554 120.049V121.21C133.969 123.271 132.744 127.655 131.685 130.499C133.83 132.822 134.415 134.941 134.415 136.537C134.415 137.495 134.248 138.221 133.774 138.511C133.468 138.714 133.106 138.801 132.744 138.801C132.326 138.801 131.797 138.801 131.184 138.743C131.657 139.672 131.936 141.094 131.964 141.965C132.744 141.994 133.523 141.994 134.136 141.907C134.86 141.791 135.473 141.588 136.002 141.21C137.033 140.456 137.451 139.033 137.451 136.943C137.451 135.028 137.033 132.705 134.805 130.093C135.863 127.597 137.033 124.229 137.952 121.414L135.64 119.933L135.167 120.049H134.554ZM112.856 121.878V124.984H126.337V121.878H112.856ZM112.16 129.687V132.851H126.95V129.687H112.16ZM114.305 125.594C114.945 126.987 115.586 128.845 115.809 130.035L118.789 129.193C118.538 128.003 117.898 126.232 117.146 124.868L114.305 125.594ZM122.076 124.781C121.686 126.435 120.906 128.729 120.209 130.209L123.023 130.935C123.747 129.541 124.582 127.451 125.362 125.507L122.076 124.781ZM115.168 141.559V144.607H124.165V141.559H115.168ZM113.413 134.941V145.884H116.561V138.046H122.577V145.739H125.892V134.941H113.413ZM117.229 119.324C117.758 120.63 118.315 122.343 118.51 123.417L121.769 122.401C121.491 121.356 120.85 119.701 120.265 118.453L117.229 119.324Z" fill="white"/>
</svg>
